<?xml version="1.0" encoding="UTF-8"?>
<svg version="1.1" xmlns="http://www.w3.org/2000/svg" width="500" height="500">
<path d="M0 0 C0.69753387 -0.00067474 1.39506775 -0.00134949 2.11373901 -0.00204468 C15.52829478 0.01836915 28.63127539 1.02112358 41.875 3.25 C43.26960449 3.48348145 43.26960449 3.48348145 44.69238281 3.72167969 C89.21995492 11.54641263 132.4007862 32.13979536 165.078125 63.5703125 C167.57576779 65.96330545 170.13134837 68.24163265 172.75 70.5 C176.84996296 74.1320324 180.36001098 78.05905155 183.875 82.25 C184.69742187 83.18457031 185.51984375 84.11914062 186.3671875 85.08203125 C218.52758506 121.82105993 238.36735545 168.88378563 243.875 217.25 C243.9692627 218.07016602 244.06352539 218.89033203 244.16064453 219.73535156 C244.97337926 227.60681098 245.11805051 235.46635854 245.125 243.375 C245.12567474 244.07253387 245.12634949 244.77006775 245.12704468 245.48873901 C245.10663085 258.90329478 244.10387642 272.00627539 241.875 285.25 C241.64151855 286.64460449 241.64151855 286.64460449 241.40332031 288.06738281 C233.57858737 332.59495492 212.98520464 375.7757862 181.5546875 408.453125 C179.16169455 410.95076779 176.88336735 413.50634837 174.625 416.125 C170.9929676 420.22496296 167.06594845 423.73501098 162.875 427.25 C161.94042969 428.07242187 161.00585938 428.89484375 160.04296875 429.7421875 C123.30394007 461.90258506 76.24121437 481.74235545 27.875 487.25 C27.05483398 487.3442627 26.23466797 487.43852539 25.38964844 487.53564453 C17.51818902 488.34837926 9.65864146 488.49305051 1.75 488.5 C1.05246613 488.50067474 0.35493225 488.50134949 -0.36373901 488.50204468 C-13.77829478 488.48163085 -26.88127539 487.47887642 -40.125 485.25 C-41.05473633 485.0943457 -41.98447266 484.93869141 -42.94238281 484.77832031 C-87.46995492 476.95358737 -130.6507862 456.36020464 -163.328125 424.9296875 C-165.82576779 422.53669455 -168.38134837 420.25836735 -171 418 C-175.09996296 414.3679676 -178.61001098 410.44094845 -182.125 406.25 C-182.94742188 405.31542969 -183.76984375 404.38085938 -184.6171875 403.41796875 C-216.77758506 366.67894007 -236.61735545 319.61621437 -242.125 271.25 C-242.2192627 270.42983398 -242.31352539 269.60966797 -242.41064453 268.76464844 C-243.22337926 260.89318902 -243.36805051 253.03364146 -243.375 245.125 C-243.37601212 244.07869919 -243.37601212 244.07869919 -243.37704468 243.01126099 C-243.35663085 229.59670522 -242.35387642 216.49372461 -240.125 203.25 C-239.9693457 202.32026367 -239.81369141 201.39052734 -239.65332031 200.43261719 C-231.82858737 155.90504508 -211.23520464 112.7242138 -179.8046875 80.046875 C-177.41169455 77.54923221 -175.13336735 74.99365163 -172.875 72.375 C-169.2429676 68.27503704 -165.31594845 64.76498902 -161.125 61.25 C-160.19042969 60.42757812 -159.25585938 59.60515625 -158.29296875 58.7578125 C-121.55394007 26.59741494 -74.49121437 6.75764455 -26.125 1.25 C-24.89475098 1.10860596 -24.89475098 1.10860596 -23.63964844 0.96435547 C-15.76818902 0.15162074 -7.90864146 0.00694949 0 0 Z " fill="#7E612A" transform="translate(249.125,5.75)"/>
<path d="M0 0 C1.17175781 0.00644531 2.34351563 0.01289062 3.55078125 0.01953125 C6.11792391 0.15699966 8.2463588 0.43406136 10.6875 1.1875 C15.32406598 16.87763927 8.59007612 31.49471528 1.6875 45.1875 C1.0275 45.1875 0.3675 45.1875 -0.3125 45.1875 C-0.3846875 46.04214844 -0.456875 46.89679688 -0.53125 47.77734375 C-1.46070154 51.83439972 -3.33467192 54.51022367 -5.8125 57.75 C-6.72754661 58.98625135 -7.6415875 60.22324767 -8.5546875 61.4609375 C-9.01713867 62.08194336 -9.47958984 62.70294922 -9.95605469 63.34277344 C-12.01542356 66.1434558 -13.97295643 69.00690329 -15.9375 71.875 C-27.63482476 88.80098759 -27.63482476 88.80098759 -33.3125 94.1875 C-37.03599554 98.23556174 -40.5105009 102.41477025 -43.8125 106.8125 C-46.50731304 110.34489007 -49.36498011 113.06963241 -52.8125 115.84765625 C-54.85723166 117.67407021 -56.01757082 119.79188103 -57.3125 122.1875 C-57.84875 122.6825 -58.385 123.1775 -58.9375 123.6875 C-60.7849141 125.70286084 -60.95281493 127.52583049 -61.3125 130.1875 C-60.6525 130.5175 -59.9925 130.8475 -59.3125 131.1875 C-59.6425 132.1775 -59.9725 133.1675 -60.3125 134.1875 C-59.6525 134.5175 -58.9925 134.8475 -58.3125 135.1875 C-58.6425 136.1775 -58.9725 137.1675 -59.3125 138.1875 C-58.6525 138.5175 -57.9925 138.8475 -57.3125 139.1875 C-57.6425 140.5075 -57.9725 141.8275 -58.3125 143.1875 C-57.6525 143.5175 -56.9925 143.8475 -56.3125 144.1875 C-56.6425 145.1775 -56.9725 146.1675 -57.3125 147.1875 C-56.6525 147.5175 -55.9925 147.8475 -55.3125 148.1875 C-55.6425 151.1575 -55.9725 154.1275 -56.3125 157.1875 C-55.466875 156.713125 -54.62125 156.23875 -53.75 155.75 C-47.14814258 152.74915572 -41.99665574 152.73664289 -35.3125 155.1875 C-33.20252554 157.841984 -32.38126699 159.98119902 -31.3125 163.1875 C-31.65234375 165.88671875 -31.65234375 165.88671875 -32.25 168.875 C-32.54197266 170.36580078 -32.54197266 170.36580078 -32.83984375 171.88671875 C-32.99582031 172.64597656 -33.15179688 173.40523437 -33.3125 174.1875 C-33.9725 174.1875 -34.6325 174.1875 -35.3125 174.1875 C-35.51875 174.72375 -35.725 175.26 -35.9375 175.8125 C-37.84500426 179.10728009 -40.36069384 181.78113628 -43.3125 184.1875 C-43.9725 184.1875 -44.6325 184.1875 -45.3125 184.1875 C-45.3125 185.1775 -45.3125 186.1675 -45.3125 187.1875 C-46.3025 187.1875 -47.2925 187.1875 -48.3125 187.1875 C-48.3125 188.1775 -48.3125 189.1675 -48.3125 190.1875 C-47.6525 190.5175 -46.9925 190.8475 -46.3125 191.1875 C-46.6425 192.1775 -46.9725 193.1675 -47.3125 194.1875 C-46.6525 194.5175 -45.9925 194.8475 -45.3125 195.1875 C-45.6425 196.1775 -45.9725 197.1675 -46.3125 198.1875 C-45.6525 198.5175 -44.9925 198.8475 -44.3125 199.1875 C-44.6425 201.8275 -44.9725 204.4675 -45.3125 207.1875 C-44.6525 207.5175 -43.9925 207.8475 -43.3125 208.1875 C-43.6425 209.1775 -43.9725 210.1675 -44.3125 211.1875 C-43.6525 211.5175 -42.9925 211.8475 -42.3125 212.1875 C-42.6425 213.5075 -42.9725 214.8275 -43.3125 216.1875 C-42.6525 216.5175 -41.9925 216.8475 -41.3125 217.1875 C-41.6425 218.1775 -41.9725 219.1675 -42.3125 220.1875 C-41.6525 220.5175 -40.9925 220.8475 -40.3125 221.1875 C-41.3025 223.1675 -42.2925 225.1475 -43.3125 227.1875 C-43.9725 227.1875 -44.6325 227.1875 -45.3125 227.1875 C-45.3125 228.1775 -45.3125 229.1675 -45.3125 230.1875 C-46.95703125 231.9765625 -46.95703125 231.9765625 -49.125 233.8125 C-50.18654297 234.72902344 -50.18654297 234.72902344 -51.26953125 235.6640625 C-53.3125 237.1875 -53.3125 237.1875 -56.3125 238.1875 C-56.3125 239.1775 -56.3125 240.1675 -56.3125 241.1875 C-57.95703125 242.90625 -57.95703125 242.90625 -60.125 244.6875 C-63.12248761 247.15972418 -63.12248761 247.15972418 -65.87109375 249.89453125 C-67.3125 251.1875 -67.3125 251.1875 -70.5625 251.375 C-75.14508862 249.92384694 -76.62537996 247.9952889 -79.54296875 244.3203125 C-81.72454713 241.69086042 -84.17069517 239.63713361 -86.83203125 237.51171875 C-88.3125 236.1875 -88.3125 236.1875 -90.3125 233.1875 C-93.93863199 233.75709153 -95.56767741 235.11124534 -98.0625 237.75 C-98.67609375 238.39066406 -99.2896875 239.03132812 -99.921875 239.69140625 C-100.38078125 240.18511719 -100.8396875 240.67882812 -101.3125 241.1875 C-105.51027101 239.0886145 -107.92807311 236.45638663 -110.82421875 232.88671875 C-112.39921482 230.97249713 -112.39921482 230.97249713 -115.125 229.0625 C-117.71640082 226.84129929 -118.03415399 225.52765217 -118.3125 222.1875 C-116.0025 220.2075 -113.6925 218.2275 -111.3125 216.1875 C-111.7805809 211.69392336 -113.10982701 210.02280762 -116.5625 207.1875 C-117.37976563 206.4965625 -118.19703125 205.805625 -119.0390625 205.09375 C-119.78929687 204.4646875 -120.53953125 203.835625 -121.3125 203.1875 C-125.60114016 199.1030808 -129.45157836 194.67150986 -133.3125 190.1875 C-136.72249903 191.81648043 -139.41984646 193.73987008 -142.3125 196.1875 C-143.11899742 196.81816879 -143.11899742 196.81816879 -143.94178772 197.46157837 C-145.90512846 199.93370349 -145.68433038 201.73370772 -145.68139648 204.86474609 C-145.68827988 206.02960541 -145.69516327 207.19446472 -145.70225525 208.3946228 C-145.69301781 210.28369858 -145.69301781 210.28369858 -145.68359375 212.2109375 C-145.69652638 214.18717562 -145.70948147 216.16341389 -145.72376347 218.13964272 C-145.75379433 223.01556539 -145.7502763 227.89158293 -145.74829102 232.76757812 C-145.74824976 235.5028958 -145.75882783 238.23781862 -145.78004456 240.97305298 C-145.7987827 243.54946219 -145.80059185 246.12606151 -145.78379822 248.70248413 C-145.79383377 249.87364777 -145.80386932 251.0448114 -145.81420898 252.25146484 C-145.81404282 253.27944183 -145.81387665 254.30741882 -145.81370544 255.36654663 C-146.78540782 260.86204984 -151.41173937 264.4601065 -155.3125 268.1875 C-156.03179687 268.89003906 -156.75109375 269.59257812 -157.4921875 270.31640625 C-158.27851563 271.05761719 -159.06484375 271.79882812 -159.875 272.5625 C-160.61878906 273.27148438 -161.36257812 273.98046875 -162.12890625 274.7109375 C-164.3125 276.1875 -164.3125 276.1875 -166.37109375 276.0859375 C-171.86290876 273.54445369 -175.61232595 268.81271756 -179.3125 264.1875 C-180.46215823 263.16799176 -181.6304177 262.16922937 -182.8125 261.1875 C-185.73767311 258.75811894 -187.93418084 256.16039895 -190.3125 253.1875 C-192.05778963 251.63979032 -193.84915384 250.15709842 -195.64453125 248.66796875 C-197.82897674 246.72908154 -199.51437531 244.48165909 -201.3125 242.1875 C-204.33622628 239.51130127 -204.33622628 239.51130127 -208.3125 239.1875 C-210.7074487 241.38286964 -212.86434872 243.68076014 -215.015625 246.11328125 C-215.90507812 247.07814453 -215.90507812 247.07814453 -216.8125 248.0625 C-217.3590625 248.67867187 -217.905625 249.29484375 -218.46875 249.9296875 C-220.3125 251.1875 -220.3125 251.1875 -222.81640625 251.1171875 C-225.7574091 250.02179051 -226.82734169 248.89038783 -228.75 246.4375 C-230.92926909 243.75642552 -232.97103675 241.55145164 -235.75 239.5 C-238.3125 237.1875 -238.3125 237.1875 -239.125 234.75 C-238.0221906 231.27190881 -236.02631055 229.95529383 -233.203125 227.74609375 C-230.49125382 225.51048094 -228.47947493 222.94546809 -226.3125 220.1875 C-228.93640954 213.98553198 -233.6273767 209.81389241 -238.69140625 205.62109375 C-240.86011544 203.70322322 -242.50614431 201.44544461 -244.3125 199.1875 C-245.46215823 198.16799176 -246.6304177 197.16922937 -247.8125 196.1875 C-250.73767311 193.75811894 -252.93418084 191.16039895 -255.3125 188.1875 C-257.07944845 186.61243735 -258.88538665 185.1046003 -260.7265625 183.6171875 C-262.3125 182.1875 -262.3125 182.1875 -264.3125 179.1875 C-264.0300993 175.18254456 -262.75453142 173.09021214 -260.0625 170.1875 C-259.43214844 169.50171875 -258.80179687 168.8159375 -258.15234375 168.109375 C-255.90720344 165.76413289 -253.63955722 163.45166378 -251.3125 161.1875 C-250.43294899 160.1423246 -250.43294899 160.1423246 -249.53562927 159.07603455 C-246.67025656 156.64191818 -245.15388752 156.69879297 -241.42993164 156.72094727 C-239.65272484 156.71557701 -239.65272484 156.71557701 -237.83961487 156.71009827 C-236.56351852 156.7245549 -235.28742218 156.73901154 -233.97265625 156.75390625 C-231.96468873 156.74675914 -229.95672084 156.739584 -227.94876003 156.73075008 C-223.71127083 156.71819043 -219.47382014 156.73897848 -215.23638916 156.76123047 C-211.74759185 156.77921139 -208.25943233 156.78816891 -204.77061462 156.77098083 C-202.15518803 156.75977577 -199.53956347 156.77001872 -196.92433167 156.80384827 C-190.0444596 156.89572104 -190.0444596 156.89572104 -184.11499023 153.82788086 C-183.52016846 152.95655518 -182.92534668 152.08522949 -182.3125 151.1875 C-181.1678125 149.7953125 -181.1678125 149.7953125 -180 148.375 C-179.443125 147.653125 -178.88625 146.93125 -178.3125 146.1875 C-179.01375 145.506875 -179.715 144.82625 -180.4375 144.125 C-182.46319229 142.11065613 -184.30890915 140.01668698 -186.125 137.8125 C-188.95337409 134.44922614 -192.09761859 131.65897004 -195.48046875 128.86328125 C-197.38419971 127.1219154 -198.83062062 125.2933286 -200.3125 123.1875 C-203.02181419 123.34231795 -204.77834039 123.66922081 -206.7578125 125.58984375 C-207.98929642 127.08521708 -209.1554837 128.6337924 -210.3125 130.1875 C-212.5 130.0625 -212.5 130.0625 -215.3125 129.1875 C-216.53057979 127.80481484 -217.73977332 126.40995782 -218.84765625 124.9375 C-221.12327678 122.218892 -223.88057252 120.10855471 -226.640625 117.8984375 C-228.57671349 115.9171133 -229.28603152 114.97198439 -229.3125 112.1875 C-227.66015625 110.046875 -227.66015625 110.046875 -225.375 107.9375 C-224.62347656 107.23109375 -223.87195313 106.5246875 -223.09765625 105.796875 C-222.21400391 105.00023437 -222.21400391 105.00023437 -221.3125 104.1875 C-222.39545701 100.93862896 -223.04197249 100.35901002 -225.625 98.3125 C-228.62716003 95.84120973 -230.88968865 93.23555299 -233.3125 90.1875 C-234.38584499 89.36185001 -235.46976487 88.54981079 -236.5625 87.75 C-239.3125 85.1875 -239.3125 85.1875 -240 82.1875 C-239.08408483 78.19077926 -237.35915587 76.90299762 -234.3125 74.1875 C-233.36057153 73.07468221 -232.4237394 71.948826 -231.5 70.8125 C-228.67108957 67.45863712 -225.53709421 64.65383844 -222.1953125 61.8203125 C-220.11865673 60.06469457 -220.11865673 60.06469457 -217.625 57.4375 C-215.22012283 55.09761951 -213.35591101 53.60374077 -210.3125 52.1875 C-207.21875 52.48046875 -207.21875 52.48046875 -203.8125 53.375 C-199.02351033 54.54965784 -194.32038265 55.55569734 -189.4375 56.25 C-184.61963932 56.9517447 -180.00590804 57.89911348 -175.3125 59.1875 C-174.9825 58.1975 -174.6525 57.2075 -174.3125 56.1875 C-172.5703125 54.50390625 -172.5703125 54.50390625 -170.4375 52.75 C-167.60937206 50.41757714 -165.49365849 48.12248664 -163.3125 45.1875 C-159.21707277 42.84725587 -154.92899482 42.59124039 -150.3125 43.1875 C-146.2898783 44.75185288 -144.72100891 45.57473663 -142.3125 49.1875 C-142.6425 50.1775 -142.9725 51.1675 -143.3125 52.1875 C-142.6525 52.5175 -141.9925 52.8475 -141.3125 53.1875 C-141.56970674 54.77310393 -141.84388799 56.35595924 -142.125 57.9375 C-142.27582031 58.81921875 -142.42664063 59.7009375 -142.58203125 60.609375 C-143.37129075 63.39499676 -144.53458379 64.93951194 -146.3125 67.1875 C-145.42763916 67.14181885 -145.42763916 67.14181885 -144.52490234 67.09521484 C-136.59108894 66.86756101 -129.62275934 68.58051946 -121.99609375 70.5859375 C-121.06152344 70.81796875 -120.12695312 71.05 -119.1640625 71.2890625 C-118.32697754 71.50900879 -117.48989258 71.72895508 -116.62744141 71.95556641 C-113.80620052 72.23822606 -112.66950274 71.71499438 -110.3125 70.1875 C-108.18116741 68.30425904 -106.11375157 66.40359292 -104.0625 64.4375 C-99.88749629 60.49479763 -95.70847871 56.88527858 -91.01953125 53.55859375 C-88.54562642 51.57154433 -86.65753266 49.21454266 -84.734375 46.703125 C-83.08488395 44.9448763 -81.45956373 44.25691872 -79.3125 43.1875 C-78.14801796 42.06023885 -77.02339401 40.89065017 -75.9375 39.6875 C-72.92805051 36.54833286 -70.52605101 35.39137172 -66.3125 34.1875 C-65.9825 33.1975 -65.6525 32.2075 -65.3125 31.1875 C-63.09192278 29.54284789 -60.89038559 28.03969653 -58.5625 26.5625 C-57.19569958 25.67849646 -55.82983186 24.79304936 -54.46484375 23.90625 C-53.42626221 23.23335937 -53.42626221 23.23335937 -52.36669922 22.546875 C-50.40236356 21.24696759 -48.47988158 19.90466033 -46.56640625 18.53125 C-45.98536133 18.11568848 -45.40431641 17.70012695 -44.80566406 17.27197266 C-43.20664464 16.12125473 -41.61293824 14.96316453 -40.01953125 13.8046875 C-37.3125 12.1875 -37.3125 12.1875 -33.3125 12.1875 C-33.3125 11.5275 -33.3125 10.8675 -33.3125 10.1875 C-30.6719848 8.88391615 -28.02588755 7.59468661 -25.375 6.3125 C-24.63958984 5.94769531 -23.90417969 5.58289063 -23.14648438 5.20703125 C-15.53313927 1.54996592 -8.48253332 -0.10379073 0 0 Z " fill="#7C602A" transform="translate(376.3125,111.8125)"/>
<path d="M0 0 C0.69753387 -0.00067474 1.39506775 -0.00134949 2.11373901 -0.00204468 C15.52829478 0.01836915 28.63127539 1.02112358 41.875 3.25 C43.26960449 3.48348145 43.26960449 3.48348145 44.69238281 3.72167969 C89.21995492 11.54641263 132.4007862 32.13979536 165.078125 63.5703125 C167.57576779 65.96330545 170.13134837 68.24163265 172.75 70.5 C176.84996296 74.1320324 180.36001098 78.05905155 183.875 82.25 C184.69742187 83.18457031 185.51984375 84.11914062 186.3671875 85.08203125 C218.52758506 121.82105993 238.36735545 168.88378563 243.875 217.25 C243.9692627 218.07016602 244.06352539 218.89033203 244.16064453 219.73535156 C244.97337926 227.60681098 245.11805051 235.46635854 245.125 243.375 C245.12567474 244.07253387 245.12634949 244.77006775 245.12704468 245.48873901 C245.10663085 258.90329478 244.10387642 272.00627539 241.875 285.25 C241.64151855 286.64460449 241.64151855 286.64460449 241.40332031 288.06738281 C233.57858737 332.59495492 212.98520464 375.7757862 181.5546875 408.453125 C179.16169455 410.95076779 176.88336735 413.50634837 174.625 416.125 C170.9929676 420.22496296 167.06594845 423.73501098 162.875 427.25 C161.94042969 428.07242187 161.00585938 428.89484375 160.04296875 429.7421875 C123.30394007 461.90258506 76.24121437 481.74235545 27.875 487.25 C27.05483398 487.3442627 26.23466797 487.43852539 25.38964844 487.53564453 C17.51818902 488.34837926 9.65864146 488.49305051 1.75 488.5 C1.05246613 488.50067474 0.35493225 488.50134949 -0.36373901 488.50204468 C-13.77829478 488.48163085 -26.88127539 487.47887642 -40.125 485.25 C-41.05473633 485.0943457 -41.98447266 484.93869141 -42.94238281 484.77832031 C-87.46995492 476.95358737 -130.6507862 456.36020464 -163.328125 424.9296875 C-165.82576779 422.53669455 -168.38134837 420.25836735 -171 418 C-175.09996296 414.3679676 -178.61001098 410.44094845 -182.125 406.25 C-182.94742188 405.31542969 -183.76984375 404.38085938 -184.6171875 403.41796875 C-216.77758506 366.67894007 -236.61735545 319.61621437 -242.125 271.25 C-242.2192627 270.42983398 -242.31352539 269.60966797 -242.41064453 268.76464844 C-243.22337926 260.89318902 -243.36805051 253.03364146 -243.375 245.125 C-243.37601212 244.07869919 -243.37601212 244.07869919 -243.37704468 243.01126099 C-243.35663085 229.59670522 -242.35387642 216.49372461 -240.125 203.25 C-239.9693457 202.32026367 -239.81369141 201.39052734 -239.65332031 200.43261719 C-231.82858737 155.90504508 -211.23520464 112.7242138 -179.8046875 80.046875 C-177.41169455 77.54923221 -175.13336735 74.99365163 -172.875 72.375 C-169.2429676 68.27503704 -165.31594845 64.76498902 -161.125 61.25 C-160.19042969 60.42757812 -159.25585938 59.60515625 -158.29296875 58.7578125 C-121.55394007 26.59741494 -74.49121437 6.75764455 -26.125 1.25 C-24.89475098 1.10860596 -24.89475098 1.10860596 -23.63964844 0.96435547 C-15.76818902 0.15162074 -7.90864146 0.00694949 0 0 Z M-60.07080078 34.60449219 C-62.20551716 35.27530156 -64.34881135 35.90972779 -66.49609375 36.5390625 C-72.6548314 38.36733954 -78.65080166 40.20084475 -84.30859375 43.3046875 C-86.3459287 44.36497795 -88.40906539 45.13939903 -90.5625 45.9375 C-95.51812673 47.87196704 -100.17809504 50.26683946 -104.875 52.75 C-105.5961499 53.12987061 -106.3172998 53.50974121 -107.06030273 53.90112305 C-111.24359085 56.14004554 -115.31085085 58.41937359 -119.125 61.25 C-119.125 61.91 -119.125 62.57 -119.125 63.25 C-119.74375 63.394375 -120.3625 63.53875 -121 63.6875 C-123.15758322 64.18152225 -123.15758322 64.18152225 -125.125 65.25 C-125.125 65.91 -125.125 66.57 -125.125 67.25 C-125.89457031 67.5903125 -125.89457031 67.5903125 -126.6796875 67.9375 C-144.51499923 77.51044687 -160.34351487 94.15919518 -171.90917969 110.53808594 C-173.26160077 112.44233827 -174.64941607 114.31807083 -176.0390625 116.1953125 C-202.87536381 152.83644666 -218.46420401 198.64266356 -217.125 244.25 C-218.445 244.25 -219.765 244.25 -221.125 244.25 C-222.9926826 301.11055901 -198.11031644 356.38329628 -159.8125 397.40234375 C-152.66996254 404.97052661 -145.35170287 411.85961474 -137.125 418.25 C-136.57070312 418.68070801 -136.01640625 419.11141602 -135.4453125 419.55517578 C-122.22798802 429.74353007 -108.27506517 437.88423862 -93.25 445.125 C-92.3115625 445.57746094 -91.373125 446.02992188 -90.40625 446.49609375 C-71.03580669 455.63566912 -50.19852738 460.83935426 -29.125 464.25 C-28.05983154 464.42789063 -28.05983154 464.42789063 -26.97314453 464.609375 C-22.03679774 465.40659323 -17.11383613 465.91918074 -12.125 466.25 C-11.26036133 466.30736328 -10.39572266 466.36472656 -9.50488281 466.42382812 C19.01714222 467.99020976 50.18060485 463.42916266 76.875 453.25 C77.53951172 452.99750488 78.20402344 452.74500977 78.88867188 452.48486328 C82.96276852 450.89825489 86.91950467 449.10953746 90.875 447.25 C92.29901152 446.60183619 93.72351968 445.95476273 95.1484375 445.30859375 C106.99363507 440.11459449 106.99363507 440.11459449 117.875 433.25 C117.875 432.59 117.875 431.93 117.875 431.25 C118.54660156 431.19457031 119.21820313 431.13914062 119.91015625 431.08203125 C124.08155574 429.91140135 126.9202375 427.57073505 130.3125 424.9375 C131.01479736 424.39988037 131.71709473 423.86226074 132.44067383 423.30834961 C148.12317501 411.19205943 162.78768851 398.02889876 174.875 382.25 C175.51236084 381.42725586 175.51236084 381.42725586 176.16259766 380.58789062 C206.84204605 340.80065348 221.19649474 294.03883299 222.875 244.25 C221.555 244.25 220.235 244.25 218.875 244.25 C218.92720703 242.63158203 218.92720703 242.63158203 218.98046875 240.98046875 C219.21417944 230.29603504 218.2417712 220.25722587 216.30517578 209.75854492 C215.99311003 207.93875172 215.72052677 206.11204722 215.47216797 204.2824707 C214.32765429 195.92422544 212.29693037 188.09818906 209.75 180.0625 C209.55247131 179.43303467 209.35494263 178.80356934 209.15142822 178.1550293 C204.5798919 163.63956391 198.70233585 150.13920452 191.3203125 136.8515625 C190.11101927 134.67483469 188.96705996 132.48713254 187.875 130.25 C187.215 130.25 186.555 130.25 185.875 130.25 C185.63910156 129.56164062 185.40320313 128.87328125 185.16015625 128.1640625 C183.616134 124.66302724 181.55608794 121.69953071 179.3125 118.625 C178.64105957 117.69868774 178.64105957 117.69868774 177.95605469 116.75366211 C167.82431262 102.89322415 156.35701941 89.00148383 142.875 78.25 C141.35712891 77.01056641 141.35712891 77.01056641 139.80859375 75.74609375 C84.68582743 31.1671818 8.39343888 12.96000481 -60.07080078 34.60449219 Z " fill="#F0BB51" transform="translate(249.125,5.75)"/>
<path d="M0 0 C1.17175781 0.00644531 2.34351563 0.01289062 3.55078125 0.01953125 C6.11792391 0.15699966 8.2463588 0.43406136 10.6875 1.1875 C15.32406598 16.87763927 8.59007612 31.49471528 1.6875 45.1875 C1.0275 45.1875 0.3675 45.1875 -0.3125 45.1875 C-0.3846875 46.04214844 -0.456875 46.89679688 -0.53125 47.77734375 C-1.46070154 51.83439972 -3.33467192 54.51022367 -5.8125 57.75 C-6.72754661 58.98625135 -7.6415875 60.22324767 -8.5546875 61.4609375 C-9.01713867 62.08194336 -9.47958984 62.70294922 -9.95605469 63.34277344 C-12.01542356 66.1434558 -13.97295643 69.00690329 -15.9375 71.875 C-27.63482476 88.80098759 -27.63482476 88.80098759 -33.3125 94.1875 C-37.03599554 98.23556174 -40.5105009 102.41477025 -43.8125 106.8125 C-46.50731304 110.34489007 -49.36498011 113.06963241 -52.8125 115.84765625 C-54.85723166 117.67407021 -56.01757082 119.79188103 -57.3125 122.1875 C-57.84875 122.6825 -58.385 123.1775 -58.9375 123.6875 C-60.7849141 125.70286084 -60.95281493 127.52583049 -61.3125 130.1875 C-60.6525 130.5175 -59.9925 130.8475 -59.3125 131.1875 C-59.6425 132.1775 -59.9725 133.1675 -60.3125 134.1875 C-59.6525 134.5175 -58.9925 134.8475 -58.3125 135.1875 C-58.6425 136.1775 -58.9725 137.1675 -59.3125 138.1875 C-58.6525 138.5175 -57.9925 138.8475 -57.3125 139.1875 C-57.6425 140.5075 -57.9725 141.8275 -58.3125 143.1875 C-57.6525 143.5175 -56.9925 143.8475 -56.3125 144.1875 C-56.6425 145.1775 -56.9725 146.1675 -57.3125 147.1875 C-56.6525 147.5175 -55.9925 147.8475 -55.3125 148.1875 C-55.6425 151.1575 -55.9725 154.1275 -56.3125 157.1875 C-55.466875 156.713125 -54.62125 156.23875 -53.75 155.75 C-47.14814258 152.74915572 -41.99665574 152.73664289 -35.3125 155.1875 C-33.20252554 157.841984 -32.38126699 159.98119902 -31.3125 163.1875 C-31.65234375 165.88671875 -31.65234375 165.88671875 -32.25 168.875 C-32.54197266 170.36580078 -32.54197266 170.36580078 -32.83984375 171.88671875 C-32.99582031 172.64597656 -33.15179688 173.40523437 -33.3125 174.1875 C-33.9725 174.1875 -34.6325 174.1875 -35.3125 174.1875 C-35.51875 174.72375 -35.725 175.26 -35.9375 175.8125 C-37.84500426 179.10728009 -40.36069384 181.78113628 -43.3125 184.1875 C-43.9725 184.1875 -44.6325 184.1875 -45.3125 184.1875 C-45.3125 185.1775 -45.3125 186.1675 -45.3125 187.1875 C-46.3025 187.1875 -47.2925 187.1875 -48.3125 187.1875 C-48.3125 188.1775 -48.3125 189.1675 -48.3125 190.1875 C-47.6525 190.5175 -46.9925 190.8475 -46.3125 191.1875 C-46.6425 192.1775 -46.9725 193.1675 -47.3125 194.1875 C-46.6525 194.5175 -45.9925 194.8475 -45.3125 195.1875 C-45.6425 196.1775 -45.9725 197.1675 -46.3125 198.1875 C-45.6525 198.5175 -44.9925 198.8475 -44.3125 199.1875 C-44.6425 201.8275 -44.9725 204.4675 -45.3125 207.1875 C-44.6525 207.5175 -43.9925 207.8475 -43.3125 208.1875 C-43.6425 209.1775 -43.9725 210.1675 -44.3125 211.1875 C-43.6525 211.5175 -42.9925 211.8475 -42.3125 212.1875 C-42.6425 213.5075 -42.9725 214.8275 -43.3125 216.1875 C-42.6525 216.5175 -41.9925 216.8475 -41.3125 217.1875 C-41.6425 218.1775 -41.9725 219.1675 -42.3125 220.1875 C-41.6525 220.5175 -40.9925 220.8475 -40.3125 221.1875 C-41.3025 223.1675 -42.2925 225.1475 -43.3125 227.1875 C-43.9725 227.1875 -44.6325 227.1875 -45.3125 227.1875 C-45.3125 228.1775 -45.3125 229.1675 -45.3125 230.1875 C-46.95703125 231.9765625 -46.95703125 231.9765625 -49.125 233.8125 C-50.18654297 234.72902344 -50.18654297 234.72902344 -51.26953125 235.6640625 C-53.3125 237.1875 -53.3125 237.1875 -56.3125 238.1875 C-56.3125 239.1775 -56.3125 240.1675 -56.3125 241.1875 C-57.95703125 242.90625 -57.95703125 242.90625 -60.125 244.6875 C-63.12248761 247.15972418 -63.12248761 247.15972418 -65.87109375 249.89453125 C-67.3125 251.1875 -67.3125 251.1875 -70.5625 251.375 C-75.14508862 249.92384694 -76.62537996 247.9952889 -79.54296875 244.3203125 C-81.72454713 241.69086042 -84.17069517 239.63713361 -86.83203125 237.51171875 C-88.3125 236.1875 -88.3125 236.1875 -90.3125 233.1875 C-93.93863199 233.75709153 -95.56767741 235.11124534 -98.0625 237.75 C-98.67609375 238.39066406 -99.2896875 239.03132812 -99.921875 239.69140625 C-100.38078125 240.18511719 -100.8396875 240.67882812 -101.3125 241.1875 C-105.51027101 239.0886145 -107.92807311 236.45638663 -110.82421875 232.88671875 C-112.39921482 230.97249713 -112.39921482 230.97249713 -115.125 229.0625 C-117.71640082 226.84129929 -118.03415399 225.52765217 -118.3125 222.1875 C-116.0025 220.2075 -113.6925 218.2275 -111.3125 216.1875 C-111.7805809 211.69392336 -113.10982701 210.02280762 -116.5625 207.1875 C-117.37976563 206.4965625 -118.19703125 205.805625 -119.0390625 205.09375 C-119.78929687 204.4646875 -120.53953125 203.835625 -121.3125 203.1875 C-125.60114016 199.1030808 -129.45157836 194.67150986 -133.3125 190.1875 C-136.72249903 191.81648043 -139.41984646 193.73987008 -142.3125 196.1875 C-143.11899742 196.81816879 -143.11899742 196.81816879 -143.94178772 197.46157837 C-145.90512846 199.93370349 -145.68433038 201.73370772 -145.68139648 204.86474609 C-145.68827988 206.02960541 -145.69516327 207.19446472 -145.70225525 208.3946228 C-145.69301781 210.28369858 -145.69301781 210.28369858 -145.68359375 212.2109375 C-145.69652638 214.18717562 -145.70948147 216.16341389 -145.72376347 218.13964272 C-145.75379433 223.01556539 -145.7502763 227.89158293 -145.74829102 232.76757812 C-145.74824976 235.5028958 -145.75882783 238.23781862 -145.78004456 240.97305298 C-145.7987827 243.54946219 -145.80059185 246.12606151 -145.78379822 248.70248413 C-145.79383377 249.87364777 -145.80386932 251.0448114 -145.81420898 252.25146484 C-145.81404282 253.27944183 -145.81387665 254.30741882 -145.81370544 255.36654663 C-146.78540782 260.86204984 -151.41173937 264.4601065 -155.3125 268.1875 C-156.03179687 268.89003906 -156.75109375 269.59257812 -157.4921875 270.31640625 C-158.27851563 271.05761719 -159.06484375 271.79882812 -159.875 272.5625 C-160.61878906 273.27148438 -161.36257812 273.98046875 -162.12890625 274.7109375 C-164.3125 276.1875 -164.3125 276.1875 -166.37109375 276.0859375 C-171.86290876 273.54445369 -175.61232595 268.81271756 -179.3125 264.1875 C-180.46215823 263.16799176 -181.6304177 262.16922937 -182.8125 261.1875 C-185.73767311 258.75811894 -187.93418084 256.16039895 -190.3125 253.1875 C-192.05778963 251.63979032 -193.84915384 250.15709842 -195.64453125 248.66796875 C-197.82897674 246.72908154 -199.51437531 244.48165909 -201.3125 242.1875 C-204.33622628 239.51130127 -204.33622628 239.51130127 -208.3125 239.1875 C-210.7074487 241.38286964 -212.86434872 243.68076014 -215.015625 246.11328125 C-215.90507812 247.07814453 -215.90507812 247.07814453 -216.8125 248.0625 C-217.3590625 248.67867187 -217.905625 249.29484375 -218.46875 249.9296875 C-220.3125 251.1875 -220.3125 251.1875 -222.81640625 251.1171875 C-225.7574091 250.02179051 -226.82734169 248.89038783 -228.75 246.4375 C-230.92926909 243.75642552 -232.97103675 241.55145164 -235.75 239.5 C-238.3125 237.1875 -238.3125 237.1875 -239.125 234.75 C-238.0221906 231.27190881 -236.02631055 229.95529383 -233.203125 227.74609375 C-230.49125382 225.51048094 -228.47947493 222.94546809 -226.3125 220.1875 C-228.93640954 213.98553198 -233.6273767 209.81389241 -238.69140625 205.62109375 C-240.86011544 203.70322322 -242.50614431 201.44544461 -244.3125 199.1875 C-245.46215823 198.16799176 -246.6304177 197.16922937 -247.8125 196.1875 C-250.73767311 193.75811894 -252.93418084 191.16039895 -255.3125 188.1875 C-257.07944845 186.61243735 -258.88538665 185.1046003 -260.7265625 183.6171875 C-262.3125 182.1875 -262.3125 182.1875 -264.3125 179.1875 C-264.0300993 175.18254456 -262.75453142 173.09021214 -260.0625 170.1875 C-259.43214844 169.50171875 -258.80179687 168.8159375 -258.15234375 168.109375 C-255.90720344 165.76413289 -253.63955722 163.45166378 -251.3125 161.1875 C-250.43294899 160.1423246 -250.43294899 160.1423246 -249.53562927 159.07603455 C-246.67025656 156.64191818 -245.15388752 156.69879297 -241.42993164 156.72094727 C-239.65272484 156.71557701 -239.65272484 156.71557701 -237.83961487 156.71009827 C-236.56351852 156.7245549 -235.28742218 156.73901154 -233.97265625 156.75390625 C-231.96468873 156.74675914 -229.95672084 156.739584 -227.94876003 156.73075008 C-223.71127083 156.71819043 -219.47382014 156.73897848 -215.23638916 156.76123047 C-211.74759185 156.77921139 -208.25943233 156.78816891 -204.77061462 156.77098083 C-202.15518803 156.75977577 -199.53956347 156.77001872 -196.92433167 156.80384827 C-190.0444596 156.89572104 -190.0444596 156.89572104 -184.11499023 153.82788086 C-183.52016846 152.95655518 -182.92534668 152.08522949 -182.3125 151.1875 C-181.1678125 149.7953125 -181.1678125 149.7953125 -180 148.375 C-179.443125 147.653125 -178.88625 146.93125 -178.3125 146.1875 C-179.01375 145.506875 -179.715 144.82625 -180.4375 144.125 C-182.46319229 142.11065613 -184.30890915 140.01668698 -186.125 137.8125 C-188.95337409 134.44922614 -192.09761859 131.65897004 -195.48046875 128.86328125 C-197.38419971 127.1219154 -198.83062062 125.2933286 -200.3125 123.1875 C-203.02181419 123.34231795 -204.77834039 123.66922081 -206.7578125 125.58984375 C-207.98929642 127.08521708 -209.1554837 128.6337924 -210.3125 130.1875 C-212.5 130.0625 -212.5 130.0625 -215.3125 129.1875 C-216.53057979 127.80481484 -217.73977332 126.40995782 -218.84765625 124.9375 C-221.12327678 122.218892 -223.88057252 120.10855471 -226.640625 117.8984375 C-228.57671349 115.9171133 -229.28603152 114.97198439 -229.3125 112.1875 C-227.66015625 110.046875 -227.66015625 110.046875 -225.375 107.9375 C-224.62347656 107.23109375 -223.87195313 106.5246875 -223.09765625 105.796875 C-222.21400391 105.00023437 -222.21400391 105.00023437 -221.3125 104.1875 C-222.39545701 100.93862896 -223.04197249 100.35901002 -225.625 98.3125 C-228.62716003 95.84120973 -230.88968865 93.23555299 -233.3125 90.1875 C-234.38584499 89.36185001 -235.46976487 88.54981079 -236.5625 87.75 C-239.3125 85.1875 -239.3125 85.1875 -240 82.1875 C-239.08408483 78.19077926 -237.35915587 76.90299762 -234.3125 74.1875 C-233.36057153 73.07468221 -232.4237394 71.948826 -231.5 70.8125 C-228.67108957 67.45863712 -225.53709421 64.65383844 -222.1953125 61.8203125 C-220.11865673 60.06469457 -220.11865673 60.06469457 -217.625 57.4375 C-215.22012283 55.09761951 -213.35591101 53.60374077 -210.3125 52.1875 C-207.21875 52.48046875 -207.21875 52.48046875 -203.8125 53.375 C-199.02351033 54.54965784 -194.32038265 55.55569734 -189.4375 56.25 C-184.61963932 56.9517447 -180.00590804 57.89911348 -175.3125 59.1875 C-174.9825 58.1975 -174.6525 57.2075 -174.3125 56.1875 C-172.5703125 54.50390625 -172.5703125 54.50390625 -170.4375 52.75 C-167.60937206 50.41757714 -165.49365849 48.12248664 -163.3125 45.1875 C-159.21707277 42.84725587 -154.92899482 42.59124039 -150.3125 43.1875 C-146.2898783 44.75185288 -144.72100891 45.57473663 -142.3125 49.1875 C-142.6425 50.1775 -142.9725 51.1675 -143.3125 52.1875 C-142.6525 52.5175 -141.9925 52.8475 -141.3125 53.1875 C-141.56970674 54.77310393 -141.84388799 56.35595924 -142.125 57.9375 C-142.27582031 58.81921875 -142.42664063 59.7009375 -142.58203125 60.609375 C-143.37129075 63.39499676 -144.53458379 64.93951194 -146.3125 67.1875 C-145.42763916 67.14181885 -145.42763916 67.14181885 -144.52490234 67.09521484 C-136.59108894 66.86756101 -129.62275934 68.58051946 -121.99609375 70.5859375 C-121.06152344 70.81796875 -120.12695312 71.05 -119.1640625 71.2890625 C-118.32697754 71.50900879 -117.48989258 71.72895508 -116.62744141 71.95556641 C-113.80620052 72.23822606 -112.66950274 71.71499438 -110.3125 70.1875 C-108.18116741 68.30425904 -106.11375157 66.40359292 -104.0625 64.4375 C-99.88749629 60.49479763 -95.70847871 56.88527858 -91.01953125 53.55859375 C-88.54562642 51.57154433 -86.65753266 49.21454266 -84.734375 46.703125 C-83.08488395 44.9448763 -81.45956373 44.25691872 -79.3125 43.1875 C-78.14801796 42.06023885 -77.02339401 40.89065017 -75.9375 39.6875 C-72.92805051 36.54833286 -70.52605101 35.39137172 -66.3125 34.1875 C-65.9825 33.1975 -65.6525 32.2075 -65.3125 31.1875 C-63.09192278 29.54284789 -60.89038559 28.03969653 -58.5625 26.5625 C-57.19569958 25.67849646 -55.82983186 24.79304936 -54.46484375 23.90625 C-53.42626221 23.23335937 -53.42626221 23.23335937 -52.36669922 22.546875 C-50.40236356 21.24696759 -48.47988158 19.90466033 -46.56640625 18.53125 C-45.98536133 18.11568848 -45.40431641 17.70012695 -44.80566406 17.27197266 C-43.20664464 16.12125473 -41.61293824 14.96316453 -40.01953125 13.8046875 C-37.3125 12.1875 -37.3125 12.1875 -33.3125 12.1875 C-33.3125 11.5275 -33.3125 10.8675 -33.3125 10.1875 C-30.6719848 8.88391615 -28.02588755 7.59468661 -25.375 6.3125 C-24.63958984 5.94769531 -23.90417969 5.58289063 -23.14648438 5.20703125 C-15.53313927 1.54996592 -8.48253332 -0.10379073 0 0 Z M-55.3125 34.1875 C-56.47450085 35.36000719 -57.63538214 36.53365491 -58.78930664 37.71411133 C-61.77919649 40.60623911 -65.06939891 43.15013391 -68.3125 45.75 C-69.36050781 46.59594727 -69.36050781 46.59594727 -70.4296875 47.45898438 C-73.30702938 49.7798592 -76.19135976 52.09127029 -79.0859375 54.390625 C-81.08646714 56.00508752 -83.01954837 57.66405196 -84.9375 59.375 C-89.12234792 63.08157959 -93.49024583 66.53513215 -97.89453125 69.9765625 C-100.34993504 72.22172978 -101.66916923 74.32462004 -103.3125 77.1875 C-107.41970167 80.43903466 -110.01821946 81.51049962 -115.25 81.125 C-117.27625391 80.84982972 -119.29701247 80.53280224 -121.3125 80.1875 C-122.56933594 79.97480469 -123.82617188 79.76210937 -125.12109375 79.54296875 C-132.66195 78.21061679 -140.11300803 76.59815588 -147.54296875 74.73828125 C-150.34934384 74.18017281 -152.47411025 73.78976386 -155.3125 74.1875 C-157.94572665 75.95958709 -157.94572665 75.95958709 -160.375 78.375 C-161.21160156 79.15230469 -162.04820312 79.92960937 -162.91015625 80.73046875 C-165.34469104 83.13897599 -165.34469104 83.13897599 -167.40234375 85.80078125 C-169.09771223 87.9191251 -170.70627772 89.50252217 -172.8125 91.1875 C-174.94486173 92.95844449 -176.56591055 94.50426319 -178.3125 96.6875 C-180.51453017 99.44003771 -182.94677272 101.46913055 -185.6484375 103.7109375 C-187.83151767 105.6480368 -189.5072575 107.90085949 -191.3125 110.1875 C-192.67375 111.2703125 -192.67375 111.2703125 -194.0625 112.375 C-194.805 112.973125 -195.5475 113.57125 -196.3125 114.1875 C-196.3125 114.8475 -196.3125 115.5075 -196.3125 116.1875 C-194.8583467 117.41083532 -193.34851457 118.56867457 -191.8125 119.6875 C-190.27648543 120.80632543 -188.7666533 121.96416468 -187.3125 123.1875 C-187.3125 123.8475 -187.3125 124.5075 -187.3125 125.1875 C-185.62727271 126.89234466 -185.62727271 126.89234466 -183.5 128.625 C-181.00017127 130.73323443 -178.59588148 132.84639258 -176.3125 135.1875 C-175.508125 135.97125 -174.70375 136.755 -173.875 137.5625 C-171.50063243 139.99477898 -169.38694535 142.49840418 -167.3125 145.1875 C-169.96777695 149.4162744 -172.72153726 152.68004802 -176.3125 156.1875 C-178.15005014 158.27960254 -179.96113296 160.3916524 -181.76171875 162.515625 C-183.77730409 164.68859862 -184.76756807 165.16405805 -187.73904419 165.29188538 C-188.75860199 165.28330002 -189.77815979 165.27471466 -190.82861328 165.26586914 C-191.98386505 165.25999283 -193.13911682 165.25411652 -194.32937622 165.24806213 C-195.58451019 165.23967819 -196.83964417 165.23129425 -198.1328125 165.22265625 C-200.77867567 165.2263704 -203.42446651 165.23195526 -206.0703125 165.24023438 C-210.25104432 165.25245624 -214.43075647 165.25432506 -218.61132812 165.21166992 C-221.33325449 165.18463193 -224.05360181 165.17884514 -226.77560425 165.19688416 C-229.33770161 165.21372995 -231.9002135 165.20079378 -234.46194458 165.15431213 C-240.76025849 165.24115022 -244.52906466 165.63149966 -249.16357422 170.12280273 C-251.68083192 172.7889474 -251.68083192 172.7889474 -252.3125 176.1875 C-252.9725 176.5175 -253.6325 176.8475 -254.3125 177.1875 C-253.6525 177.1875 -252.9925 177.1875 -252.3125 177.1875 C-252.3125 178.1775 -252.3125 179.1675 -252.3125 180.1875 C-250.11873852 182.22420815 -250.11873852 182.22420815 -247.375 184.1875 C-242.41904206 187.86787383 -242.41904206 187.86787383 -241.3125 191.1875 C-239.69513741 192.5802289 -238.0199998 193.90687515 -236.3125 195.1875 C-231.42361111 198.85416667 -231.42361111 198.85416667 -230.3125 202.1875 C-228.69776859 203.60319334 -227.02226598 204.950675 -225.3125 206.25 C-220.41238519 209.98772962 -220.41238519 209.98772962 -219.3125 212.1875 C-214.08131564 209.76693004 -209.90508703 206.17823378 -206.3125 201.6875 C-204.12215766 198.94957207 -201.73753658 196.89437711 -199.03515625 194.6796875 C-197.08178397 193.05838359 -197.08178397 193.05838359 -194.8125 190.3125 C-192.3125 188.1875 -192.3125 188.1875 -188.875 187.625 C-183.68304472 188.44478241 -180.63157929 190.41356578 -177.5 194.625 C-175.74645006 198.40897618 -175.11728942 200.9046876 -175.75 205.0625 C-177.99790557 209.55831114 -181.47485259 212.04286464 -185.3125 215.1875 C-187.00012851 216.8329378 -188.6665349 218.50038577 -190.3125 220.1875 C-191.34310547 221.18523437 -191.34310547 221.18523437 -192.39453125 222.203125 C-193.13058594 222.91984375 -193.86664063 223.6365625 -194.625 224.375 C-195.32238281 225.04917969 -196.01976562 225.72335937 -196.73828125 226.41796875 C-198.53405697 228.04180903 -198.53405697 228.04180903 -198.3125 230.1875 C-198.9725 230.5175 -199.6325 230.8475 -200.3125 231.1875 C-199.3225 232.1775 -199.3225 232.1775 -198.3125 233.1875 C-197.19875 234.3321875 -197.19875 234.3321875 -196.0625 235.5 C-194.07709812 237.44027911 -192.15511499 239.15294594 -190 240.875 C-189.113125 241.638125 -188.22625 242.40125 -187.3125 243.1875 C-187.3125 243.8475 -187.3125 244.5075 -187.3125 245.1875 C-185.62727271 246.89234466 -185.62727271 246.89234466 -183.5 248.625 C-181.00056799 250.73289985 -178.58921682 252.84003774 -176.3125 255.1875 C-172.81127576 258.78335192 -169.19891583 262.02413828 -165.3125 265.1875 C-164.22731889 264.27302154 -163.14445262 263.35579593 -162.0625 262.4375 C-161.45921875 261.92703125 -160.8559375 261.4165625 -160.234375 260.890625 C-159.60015625 260.32859375 -158.9659375 259.7665625 -158.3125 259.1875 C-157.27649406 258.32248871 -157.27649406 258.32248871 -156.21955872 257.44000244 C-153.79737779 254.5790688 -153.83299144 253.15374425 -153.87768555 249.44433594 C-153.88056076 248.28923523 -153.88343597 247.13413452 -153.88639832 245.94403076 C-153.90712906 244.69921936 -153.9278598 243.45440796 -153.94921875 242.171875 C-153.94931878 240.20830904 -153.94937764 238.24474211 -153.94705677 236.28117752 C-153.94755482 231.44679716 -153.99093566 226.61281332 -154.0480957 221.77880859 C-154.07863594 219.0654716 -154.09031724 216.35320572 -154.0827179 213.63970947 C-154.07716597 211.08861564 -154.10016402 208.5372563 -154.15544128 205.98675537 C-154.12177654 200.01364627 -153.91382701 196.11068485 -149.91479492 191.4831543 C-148.74404714 190.35266706 -147.5461192 189.24902506 -146.3125 188.1875 C-145.52101563 187.43597656 -144.72953125 186.68445313 -143.9140625 185.91015625 C-143.26179688 185.36230469 -142.60953125 184.81445312 -141.9375 184.25 C-141.26976562 183.68410156 -140.60203125 183.11820313 -139.9140625 182.53515625 C-139.12128906 181.86806641 -139.12128906 181.86806641 -138.3125 181.1875 C-137.9825 180.8575 -137.6525 180.5275 -137.3125 180.1875 C-134.6875 179.6875 -134.6875 179.6875 -131.3125 180.1875 C-128.68598014 182.26909873 -126.51885633 184.67407346 -124.3125 187.1875 C-123.6525 187.8475 -122.9925 188.5075 -122.3125 189.1875 C-121.57 189.950625 -120.8275 190.71375 -120.0625 191.5 C-118.07709812 193.44027911 -116.15511499 195.15294594 -114 196.875 C-113.113125 197.638125 -112.22625 198.40125 -111.3125 199.1875 C-111.3125 199.8475 -111.3125 200.5075 -111.3125 201.1875 C-109.52637689 202.99443756 -109.52637689 202.99443756 -107.3125 204.8125 C-106.57 205.44414062 -105.8275 206.07578125 -105.0625 206.7265625 C-104.485 207.20867187 -103.9075 207.69078125 -103.3125 208.1875 C-102.384375 207.2284375 -102.384375 207.2284375 -101.4375 206.25 C-98.02175235 202.81467786 -94.35885217 199.65795922 -90.71484375 196.46875 C-88.30621302 194.18152992 -86.25579571 191.88028851 -84.3125 189.1875 C-84.3125 188.5275 -84.3125 187.8675 -84.3125 187.1875 C-83.755625 186.98125 -83.19875 186.775 -82.625 186.5625 C-80.01051451 185.00794106 -78.54162583 183.08412489 -76.68359375 180.7109375 C-75.24114691 179.10821879 -73.82261876 178.07824492 -72 176.9375 C-71.113125 176.36 -70.22625 175.7825 -69.3125 175.1875 C-69.3125 174.5275 -69.3125 173.8675 -69.3125 173.1875 C-68.6525 173.1875 -67.9925 173.1875 -67.3125 173.1875 C-64.53688985 169.57079587 -62.81952294 166.7177829 -62.3125 162.1875 C-62.7336108 159.12578674 -62.7336108 159.12578674 -63.5625 155.875 C-63.84351563 154.64523437 -64.12453125 153.41546875 -64.4140625 152.1484375 C-64.56262695 151.50229492 -64.71119141 150.85615234 -64.86425781 150.19042969 C-66.19955418 144.22377858 -67.26300091 138.20962572 -68.3125 132.1875 C-68.5290625 131.15109375 -68.745625 130.1146875 -68.96875 129.046875 C-69.638334 125.05169046 -69.93035516 122.39634704 -68.0546875 118.7265625 C-64.90199503 114.47113454 -61.18070906 111.03553271 -57.07421875 107.72265625 C-54.39656854 105.38936017 -52.17237372 102.7078377 -49.87890625 100.00390625 C-48.3125 98.1875 -48.3125 98.1875 -46.0625 96 C-44.2082359 94.22187652 -44.2082359 94.22187652 -42.9296875 91.828125 C-41.36832076 89.27864694 -39.72559992 87.30148942 -37.6875 85.125 C-33.49230873 80.51805847 -29.84684503 75.6321015 -26.1953125 70.59375 C-24.3125 68.1875 -24.3125 68.1875 -22.3125 67.1875 C-20.78759216 64.4473531 -20.78759216 64.4473531 -20.3125 61.1875 C-22.67689582 56.88859851 -26.53534102 54.47045823 -30.43359375 51.65625 C-32.8213205 49.78975258 -34.46040122 47.57730488 -36.3125 45.1875 C-37.48353378 44.16826689 -38.67256382 43.16948955 -39.875 42.1875 C-42.78253141 39.78724002 -44.40803497 37.45229719 -46.3125 34.1875 C-49.73886414 31.56062083 -51.65664633 32.13665526 -55.3125 34.1875 Z " fill="#EEBC58" transform="translate(376.3125,111.8125)"/>
<path d="M0 0 C40.01519599 -0.68574429 78.63698008 9.89423577 113.51269531 29.14404297 C115.04022377 29.97328454 116.59212419 30.75738071 118.1484375 31.53125 C133.33655967 39.17204377 146.6255452 50.65977926 158.67382812 62.51318359 C160.19954959 64.01026368 161.74408396 65.48422636 163.296875 66.953125 C202.27255576 104.55254584 224.73941605 160.41926244 226.3125 214.12109375 C226.33374215 216.78841894 226.32735238 219.45360557 226.3125 222.12109375 C224.9925 222.12109375 223.6725 222.12109375 222.3125 222.12109375 C222.27286133 221.42363037 222.23322266 220.72616699 222.19238281 220.00756836 C219.9787744 182.6361103 212.27340257 147.53963267 193.66015625 114.72265625 C192.4922239 112.46803901 191.77660638 110.60024428 191.3125 108.12109375 C190.6525 108.12109375 189.9925 108.12109375 189.3125 108.12109375 C187.75295448 105.94200275 186.30492242 103.75839197 184.875 101.49609375 C174.25272937 85.18746557 161.59668697 69.30974918 146.3125 57.12109375 C144.79462891 55.88166016 144.79462891 55.88166016 143.24609375 54.6171875 C97.79159008 17.8571979 40.84685915 0.41156533 -17.453125 5.44628906 C-30.79569571 6.91726454 -43.83313276 9.42890293 -56.63330078 13.47558594 C-58.76801716 14.14639531 -60.91131135 14.78082154 -63.05859375 15.41015625 C-69.2173314 17.23843329 -75.21330166 19.0719385 -80.87109375 22.17578125 C-82.9084287 23.2360717 -84.97156539 24.01049278 -87.125 24.80859375 C-92.12391472 26.75824848 -96.8244319 29.18028348 -101.5625 31.68359375 C-102.30040771 32.07184326 -103.03831543 32.46009277 -103.79858398 32.86010742 C-107.320531 34.74393955 -110.49718019 36.70908868 -113.6875 39.12109375 C-114.3475 39.12109375 -115.0075 39.12109375 -115.6875 39.12109375 C-115.6875 39.78109375 -115.6875 40.44109375 -115.6875 41.12109375 C-117.6675 41.78109375 -119.6475 42.44109375 -121.6875 43.12109375 C-121.6875 43.78109375 -121.6875 44.44109375 -121.6875 45.12109375 C-123.42690747 46.56163396 -125.23221194 47.9229384 -127.0625 49.24609375 C-128.17907527 50.06807414 -129.29495163 50.89100472 -130.41015625 51.71484375 C-130.96848145 52.12476563 -131.52680664 52.5346875 -132.10205078 52.95703125 C-145.65001804 62.90416828 -157.62826094 74.68461628 -167.42333984 88.36083984 C-168.80187462 90.28035234 -170.20744452 92.17853097 -171.61328125 94.078125 C-196.11417919 127.56060011 -209.54228005 166.8283109 -212.6875 208.12109375 C-212.74389648 208.83668457 -212.80029297 209.55227539 -212.85839844 210.28955078 C-213.16575979 214.23159655 -213.44286089 218.17467871 -213.6875 222.12109375 C-214.6775 222.12109375 -215.6675 222.12109375 -216.6875 222.12109375 C-217.89872798 193.21984836 -213.10643041 163.40547772 -200.6875 137.12109375 C-200.06196123 135.76587356 -199.43700917 134.41038246 -198.8125 133.0546875 C-197.11423775 129.38877222 -195.38130043 125.74058902 -193.63232422 122.09863281 C-192.80631963 120.36978601 -191.99740505 118.63279498 -191.19140625 116.89453125 C-182.30491543 98.2152786 -168.92957297 81.95202166 -154.6875 67.12109375 C-154.20023438 66.60659668 -153.71296875 66.09209961 -153.2109375 65.56201172 C-145.62482016 57.57275512 -137.45415372 50.77543265 -128.6875 44.12109375 C-127.83671875 43.41855469 -126.9859375 42.71601562 -126.109375 41.9921875 C-123.62674025 40.07415194 -121.15306115 38.63493973 -118.375 37.18359375 C-114.19721078 34.96484894 -110.19127475 32.61215481 -106.24609375 30.00390625 C-104.6875 29.12109375 -104.6875 29.12109375 -102.6875 29.12109375 C-102.6875 28.46109375 -102.6875 27.80109375 -102.6875 27.12109375 C-69.81959627 10.96519591 -36.86547045 1.21062456 0 0 Z " fill="#F7D47A" transform="translate(245.6875,27.87890625)"/>
<path d="M0 0 C2.27689206 2.97260908 3.81610467 5.44831402 5 9 C4.67 9.66 4.34 10.32 4 11 C4.66 11.33 5.32 11.66 6 12 C5.01 14.97 4.02 17.94 3 21 C2.34 21 1.68 21 1 21 C0.95875 21.70125 0.9175 22.4025 0.875 23.125 C-0.33666866 27.10619704 -2.75957905 29.45280343 -6 32 C-6.99 32.33 -7.98 32.66 -9 33 C-10.81655622 34.79246864 -10.81655622 34.79246864 -12.5625 36.9375 C-14.33130568 39.03343963 -16.05994888 41.05994888 -18 43 C-18.99 43 -19.98 43 -21 43 C-21 43.66 -21 44.32 -21 45 C-27.30573268 47.25422328 -31.77354956 47.24578662 -37.890625 44.38671875 C-41.35712864 42.10781358 -42.09851499 39.99229076 -43 36 C-43.47328461 30.86606519 -43.88493328 25.44760547 -41 21 C-39.07057072 19.13994346 -37.07325079 17.40465533 -35.015625 15.6875 C-32.52067766 13.59870688 -30.27089195 11.32911995 -28 9 C-27.40960938 8.41992188 -26.81921875 7.83984375 -26.2109375 7.2421875 C-25.58445312 6.62601563 -24.95796875 6.00984375 -24.3125 5.375 C-23.73113281 4.80523437 -23.14976562 4.23546875 -22.55078125 3.6484375 C-20.79748102 1.87617026 -20.79748102 1.87617026 -19 -1 C-13.48606152 -3.05142227 -4.98575634 -3.22607763 0 0 Z " fill="#FECA62" transform="translate(297,202)"/>
<path d="M0 0 C-0.52508693 13.10091885 -4.39983144 23.71411618 -11.09765625 34.80859375 C-12.88847276 37.81289988 -14.47649543 40.85332234 -16 44 C-17.32 44 -18.64 44 -20 44 C-25 38.77272727 -25 38.77272727 -25 36 C-25.58265625 35.7421875 -26.1653125 35.484375 -26.765625 35.21875 C-29.1802903 33.90165983 -30.81740177 32.44911616 -32.75 30.5 C-33.67039062 29.58734375 -33.67039062 29.58734375 -34.609375 28.65625 C-36 27 -36 27 -36 25 C-36.556875 24.7525 -37.11375 24.505 -37.6875 24.25 C-40.39971127 22.78393985 -42.63587365 20.97010529 -45 19 C-43.9661996 15.54371209 -42.77171011 14.86626496 -39.5859375 13 C-38.18820394 12.32102506 -36.7842445 11.65474881 -35.375 11 C-34.68792969 10.67 -34.00085938 10.34 -33.29296875 10 C-31.89940138 9.33066933 -30.50311772 8.66696624 -29.10424805 8.00878906 C-26.99854888 6.99930433 -24.92901604 5.93306603 -22.85546875 4.859375 C-15.75767383 1.29828202 -7.93727761 -0.54117802 0 0 Z " fill="#7E652C" transform="translate(379,121)"/>
<path d="M0 0 C3.68968597 0.95227508 7.35656257 1.97338648 11.01953125 3.0234375 C9.1228254 6.45975335 7.32087329 8.87655582 4.26953125 11.3359375 C0.67745674 14.36118924 -2.3539886 17.60555131 -5.39453125 21.17578125 C-9.20290378 25.61262905 -13.46175865 29.34541765 -17.98046875 33.0234375 C-22.85546875 29.3984375 -22.85546875 29.3984375 -23.98046875 26.0234375 C-25.61311519 24.56382367 -27.30958898 23.17436998 -29.04296875 21.8359375 C-29.96207031 21.12050781 -30.88117188 20.40507812 -31.828125 19.66796875 C-32.53839844 19.12527344 -33.24867188 18.58257812 -33.98046875 18.0234375 C-33.34109375 17.4046875 -32.70171875 16.7859375 -32.04296875 16.1484375 C-29.4224341 13.54279225 -26.98950333 10.79231954 -24.54296875 8.0234375 C-23.02549211 6.35371403 -21.50495631 4.68676232 -19.98046875 3.0234375 C-19.46484375 2.43175781 -18.94921875 1.84007812 -18.41796875 1.23046875 C-13.06232193 -4.2012526 -6.56165497 -1.63847059 0 0 Z " fill="#7D6029" transform="translate(179.98046875,175.9765625)"/>
<path d="M0 0 C0.99 0 1.98 0 3 0 C3.67511172 2.70647467 4.34027341 5.41477185 5 8.125 C5.19078125 8.88554687 5.3815625 9.64609375 5.578125 10.4296875 C7.58814858 18.75692807 7.58814858 18.75692807 7 23 C5.2421875 25.59765625 5.2421875 25.59765625 2.875 28.0625 C2.05257813 28.92359375 1.23015625 29.7846875 0.3828125 30.671875 C-2.30788531 33.30081909 -5.05729316 35.65921047 -8 38 C-9.71036626 39.62892025 -11.353784 41.30536589 -13 43 C-14.33920838 41.88200014 -15.67122556 40.75538103 -17 39.625 C-17.7425 38.99851562 -18.485 38.37203125 -19.25 37.7265625 C-19.8275 37.15679687 -20.405 36.58703125 -21 36 C-21 35.34 -21 34.68 -21 34 C-22.78723941 32.41544134 -22.78723941 32.41544134 -25 30.875 C-25.7425 30.33617187 -26.485 29.79734375 -27.25 29.2421875 C-27.8275 28.83226562 -28.405 28.42234375 -29 28 C-25.63423196 23.6876097 -22.03128652 20.15333846 -17.86328125 16.61328125 C-15.85785564 14.92293366 -15.85785564 14.92293366 -13.625 12.5625 C-12 11 -12 11 -10 11 C-10 10.34 -10 9.68 -10 9 C-8.3203125 7.34375 -8.3203125 7.34375 -6.125 5.5 C-4.00964496 3.71066742 -1.95980876 1.95980876 0 0 Z " fill="#725726" transform="translate(319,310)"/>
<path d="M0 0 C1.07507813 0.36351562 1.07507813 0.36351562 2.171875 0.734375 C2.828125 2.4921875 2.828125 2.4921875 3.171875 4.734375 C0.38267025 10.29029091 -4.71537598 15.25559732 -9.828125 18.734375 C-10.488125 18.734375 -11.148125 18.734375 -11.828125 18.734375 C-12.20324219 19.61802734 -12.20324219 19.61802734 -12.5859375 20.51953125 C-13.99250747 23.02747205 -15.48366834 24.35862078 -17.703125 26.171875 C-20.83702998 28.81628315 -23.27457363 31.52184264 -25.828125 34.734375 C-27.00050171 35.75206312 -28.18941578 36.75088495 -29.390625 37.734375 C-31.55765799 39.53109223 -32.81919785 40.71923765 -34.265625 43.171875 C-36.28449552 46.48282265 -38.89482401 48.55167837 -41.83984375 51.0390625 C-44.30797912 53.1435237 -46.56615728 55.41127302 -48.828125 57.734375 C-49.715 58.600625 -50.601875 59.466875 -51.515625 60.359375 C-53.94088176 62.70523255 -53.94088176 62.70523255 -55.828125 65.734375 C-60.07634874 65.26235014 -62.02802209 62.76781982 -64.828125 59.734375 C-63.8175 58.909375 -62.806875 58.084375 -61.765625 57.234375 C-58.30885649 54.28040918 -55.38325108 51.05259646 -52.43359375 47.6015625 C-48.90191632 43.4941615 -44.93915716 39.94262809 -40.890625 36.359375 C-37.29849228 33.16163074 -34.16382414 29.89152962 -31.140625 26.1640625 C-29.32720818 24.18873346 -27.14000235 23.05544777 -24.828125 21.734375 C-24.333125 20.249375 -24.333125 20.249375 -23.828125 18.734375 C-21.33185513 16.58480928 -18.71306162 14.64807747 -16.078125 12.671875 C-13.58523864 10.85994371 -13.58523864 10.85994371 -12.828125 7.734375 C-10.71875 5.65625 -10.71875 5.65625 -8.078125 3.484375 C-7.21703125 2.75734375 -6.3559375 2.0303125 -5.46875 1.28125 C-2.828125 -0.265625 -2.828125 -0.265625 0 0 Z " fill="#6A5123" transform="translate(332.828125,275.265625)"/>
<path d="M0 0 C0.86625 0.268125 1.7325 0.53625 2.625 0.8125 C2.95509433 3.99035729 2.89430446 5.42224243 1.05078125 8.09375 C0.35339844 8.8259375 -0.34398437 9.558125 -1.0625 10.3125 C-2.17044922 11.488125 -2.17044922 11.488125 -3.30078125 12.6875 C-3.98527344 13.38875 -4.66976562 14.09 -5.375 14.8125 C-6.15875 15.6375 -6.9425 16.4625 -7.75 17.3125 C-10.20132304 19.64709337 -12.71407664 21.88315209 -15.25 24.125 C-19.09624418 27.55975892 -22.54164618 31.12328797 -25.875 35.05078125 C-29.33446348 39.11384903 -33.26048932 42.59882615 -37.25 46.125 C-41.08781354 49.55223022 -44.52945297 53.10475903 -47.8515625 57.02734375 C-51.02057989 60.74078208 -54.38276951 64.00315262 -58.375 66.8125 C-60.355 65.1625 -62.335 63.5125 -64.375 61.8125 C-63.30512423 58.60287268 -62.79110306 58.11344163 -60.25 56.125 C-56.76909315 53.25753165 -53.90543667 50.10183539 -50.98046875 46.6796875 C-46.68365392 41.68241867 -41.72611194 37.42487532 -36.77734375 33.09375 C-34.37897424 30.81627392 -32.42820986 28.3989566 -30.375 25.8125 C-29.23981897 24.77689625 -28.07487578 23.77240063 -26.875 22.8125 C-23.95573393 20.38391908 -21.69643384 17.83036399 -19.375 14.8125 C-17.7295622 13.12487149 -16.06211423 11.4584651 -14.375 9.8125 C-13.570625 8.9875 -12.76625 8.1625 -11.9375 7.3125 C-11.091875 6.4875 -10.24625 5.6625 -9.375 4.8125 C-8.900625 4.33039063 -8.42625 3.84828125 -7.9375 3.3515625 C-5.12592132 0.70106385 -3.93342693 -0.21852372 0 0 Z " fill="#785D29" transform="translate(222.375,164.1875)"/>
<path d="M0 0 C0.66 0.66 1.32 1.32 2 2 C1.7598929 6.44198128 -0.03250699 8.79823123 -3 12 C-4.75738117 13.54077373 -6.54582531 15.03805831 -8.34375 16.53125 C-10.16874879 18.06593328 -10.16874879 18.06593328 -12 20.5 C-14.20421117 23.25526397 -16.64034014 25.2860452 -19.34375 27.53125 C-21.16874879 29.06593328 -21.16874879 29.06593328 -23 31.5 C-25.21851648 34.2731456 -27.66114851 36.34634268 -30.4140625 38.5703125 C-32.24893404 40.10625904 -32.24893404 40.10625904 -34 43 C-37.35595828 42.40072174 -39.37801226 41.15377564 -42 39 C-41.44110902 35.49560249 -40.40261653 34.15646178 -37.625 32 C-34.9628302 29.85502065 -33.02203456 27.76699466 -31 25 C-30.34 25 -29.68 25 -29 25 C-29 24.34 -29 23.68 -29 23 C-28.29875 22.443125 -27.5975 21.88625 -26.875 21.3125 C-24.53134537 19.42738649 -22.88800816 17.7841964 -21 15.5 C-18.57061894 12.57482689 -15.97289895 10.37831916 -13 8 C-11.39227327 6.20078224 -9.85243215 4.361704 -8.33203125 2.48828125 C-5.8352503 -0.30137723 -3.59326136 -0.2694946 0 0 Z " fill="#6A5123" transform="translate(190,309)"/>
<path d="M0 0 C2 3 2 3 1.90722656 5.37207031 C0.73473455 8.76838465 -0.9848147 10.50251543 -3.515625 13.046875 C-4.43730469 13.97371094 -5.35898437 14.90054688 -6.30859375 15.85546875 C-6.79183105 16.33032715 -7.27506836 16.80518555 -7.77294922 17.29443359 C-9.24550668 18.74557203 -10.69550533 20.21681218 -12.14453125 21.69140625 C-13.07136719 22.61308594 -13.99820312 23.53476563 -14.953125 24.484375 C-15.80036133 25.32709961 -16.64759766 26.16982422 -17.52050781 27.03808594 C-20.15992759 29.12654373 -21.6592058 29.83524471 -25 30 C-27.96790864 28.24623581 -29.5910923 26.92567688 -30.9921875 23.75390625 C-31.00239092 20.15720016 -29.48942867 18.75416002 -27.06640625 16.23242188 C-26.50824219 15.68134766 -25.95007813 15.13027344 -25.375 14.5625 C-24.298117 13.46096546 -23.22258474 12.3581087 -22.1484375 11.25390625 C-21.61951904 10.71677002 -21.09060059 10.17963379 -20.5456543 9.6262207 C-19.03383492 8.03559855 -17.62408404 6.39766071 -16.23046875 4.703125 C-13.77006304 1.72133735 -11.6694456 -0.27657357 -8.125 -1.8125 C-5.01563914 -2.08685537 -2.83682559 -1.23340243 0 0 Z " fill="#7C612A" transform="translate(292,210)"/>
<path d="M0 0 C2.375 0.875 2.375 0.875 4.375 3.875 C2.24655831 7.90783688 -0.05876748 10.09159901 -3.625 12.875 C-4.24375 13.65875 -4.8625 14.4425 -5.5 15.25 C-7.75779055 18.03903538 -10.20317059 20.11074826 -12.953125 22.390625 C-15.13882467 24.33119948 -16.83450331 26.57293283 -18.625 28.875 C-21.625 30.875 -21.625 30.875 -23.8125 30.5 C-24.7096875 30.190625 -24.7096875 30.190625 -25.625 29.875 C-26.5 27.8125 -26.5 27.8125 -26.625 24.875 C-24.36780594 21.26348951 -21.40111041 18.48074471 -18.0625 15.875 C-15.89881191 14.09966618 -14.82418552 12.83506723 -13.3125 10.5625 C-10.23458452 6.08641471 -5.85742951 -0.27892521 0 0 Z " fill="#E8B75B" transform="translate(226.625,270.125)"/>
<path d="M0 0 C0.99 0 1.98 0 3 0 C2.67 1.32 2.34 2.64 2 4 C1.67 3.34 1.34 2.68 1 2 C0.3709375 2.64066406 -0.258125 3.28132813 -0.90625 3.94140625 C-5.56761703 8.65191419 -10.27080834 13.21695735 -15.3046875 17.52734375 C-17.30002862 19.26062394 -19.16992634 21.09367328 -21 23 C-21.66 22.67 -22.32 22.34 -23 22 C-21.83593677 20.83593677 -20.67129061 19.67245135 -19.50390625 18.51171875 C-18.4596661 17.46205398 -17.42652024 16.40128152 -16.40234375 15.33203125 C-14.97138652 13.85185191 -13.48847779 12.42232322 -12 11 C-11.34 11 -10.68 11 -10 11 C-10 10.34 -10 9.68 -10 9 C-8.3203125 7.34375 -8.3203125 7.34375 -6.125 5.5 C-4.00964496 3.71066742 -1.95980876 1.95980876 0 0 Z " fill="#453517" transform="translate(319,310)"/>
<path d="M0 0 C1.32 0.33 2.64 0.66 4 1 C3.43410156 1.49371094 2.86820313 1.98742187 2.28515625 2.49609375 C1.55167969 3.13675781 0.81820312 3.77742187 0.0625 4.4375 C-1.03384766 5.39462891 -1.03384766 5.39462891 -2.15234375 6.37109375 C-3.12139353 7.22541459 -4.08651175 8.08651175 -5 9 C-6.66617115 9.04063832 -8.33388095 9.042721 -10 9 C-9.40703125 8.74476563 -8.8140625 8.48953125 -8.203125 8.2265625 C-5.78775462 6.88183502 -4.48788294 5.50785633 -2.75 3.375 C-2.22921875 2.74335938 -1.7084375 2.11171875 -1.171875 1.4609375 C-0.78515625 0.97882813 -0.3984375 0.49671875 0 0 Z " fill="#4E3B1A" transform="translate(172,234)"/>
<path d="M0 0 C0.66 0.33 1.32 0.66 2 1 C-1.3 4.3 -4.6 7.6 -8 11 C-8.66 10.67 -9.32 10.34 -10 10 C-6.66666667 6.66666667 -3.33333333 3.33333333 0 0 Z " fill="#523F1B" transform="translate(306,322)"/>
</svg>
